<mxfile host="app.diagrams.net" modified="2023-09-22T17:21:03.500Z" agent="Mozilla/5.0 (Windows NT 10.0; Win64; x64; rv:109.0) Gecko/20100101 Firefox/117.0" etag="gX4oMrG0Kn_fYhyeunkk" version="21.8.0" type="google">
  <diagram id="C5RBs43oDa-KdzZeNtuy" name="Page-1">
    <mxGraphModel grid="1" page="1" gridSize="10" guides="1" tooltips="1" connect="1" arrows="1" fold="1" pageScale="1" pageWidth="827" pageHeight="1169" math="0" shadow="0">
      <root>
        <mxCell id="WIyWlLk6GJQsqaUBKTNV-0" />
        <mxCell id="WIyWlLk6GJQsqaUBKTNV-1" parent="WIyWlLk6GJQsqaUBKTNV-0" />
        <mxCell id="DqnEtjNsPHN09WJmWj53-7" style="edgeStyle=orthogonalEdgeStyle;rounded=0;orthogonalLoop=1;jettySize=auto;html=1;entryX=0.5;entryY=1;entryDx=0;entryDy=0;" edge="1" parent="WIyWlLk6GJQsqaUBKTNV-1" source="DqnEtjNsPHN09WJmWj53-2" target="DqnEtjNsPHN09WJmWj53-9">
          <mxGeometry relative="1" as="geometry">
            <mxPoint x="370" y="260" as="targetPoint" />
          </mxGeometry>
        </mxCell>
        <mxCell id="DqnEtjNsPHN09WJmWj53-2" value="Camera" style="swimlane;whiteSpace=wrap;html=1;" vertex="1" parent="WIyWlLk6GJQsqaUBKTNV-1">
          <mxGeometry x="170" y="200" width="110" height="120" as="geometry" />
        </mxCell>
        <mxCell id="DqnEtjNsPHN09WJmWj53-5" value="" style="endArrow=none;html=1;rounded=0;entryX=1;entryY=0.5;entryDx=0;entryDy=0;exitX=0;exitY=0.5;exitDx=0;exitDy=0;" edge="1" parent="DqnEtjNsPHN09WJmWj53-2">
          <mxGeometry width="50" height="50" relative="1" as="geometry">
            <mxPoint y="90" as="sourcePoint" />
            <mxPoint x="110" y="90" as="targetPoint" />
          </mxGeometry>
        </mxCell>
        <mxCell id="DqnEtjNsPHN09WJmWj53-6" value="pixel values" style="text;html=1;align=left;verticalAlign=middle;resizable=0;points=[];autosize=1;strokeColor=none;fillColor=none;" vertex="1" parent="DqnEtjNsPHN09WJmWj53-2">
          <mxGeometry x="10" y="40" width="90" height="30" as="geometry" />
        </mxCell>
        <mxCell id="DqnEtjNsPHN09WJmWj53-23" value="Capture" style="text;html=1;align=center;verticalAlign=middle;resizable=0;points=[];autosize=1;strokeColor=none;fillColor=none;" vertex="1" parent="DqnEtjNsPHN09WJmWj53-2">
          <mxGeometry x="20" y="90" width="70" height="30" as="geometry" />
        </mxCell>
        <mxCell id="DqnEtjNsPHN09WJmWj53-29" style="edgeStyle=orthogonalEdgeStyle;rounded=0;orthogonalLoop=1;jettySize=auto;html=1;entryX=0.5;entryY=1;entryDx=0;entryDy=0;" edge="1" parent="WIyWlLk6GJQsqaUBKTNV-1" source="DqnEtjNsPHN09WJmWj53-9" target="DqnEtjNsPHN09WJmWj53-25">
          <mxGeometry relative="1" as="geometry">
            <mxPoint x="570" y="260" as="targetPoint" />
          </mxGeometry>
        </mxCell>
        <mxCell id="DqnEtjNsPHN09WJmWj53-9" value="Processing" style="swimlane;whiteSpace=wrap;html=1;" vertex="1" parent="WIyWlLk6GJQsqaUBKTNV-1">
          <mxGeometry x="350" y="200" width="160" height="120" as="geometry" />
        </mxCell>
        <mxCell id="DqnEtjNsPHN09WJmWj53-10" value="" style="endArrow=none;html=1;rounded=0;entryX=1;entryY=0.75;entryDx=0;entryDy=0;exitX=0;exitY=0.5;exitDx=0;exitDy=0;" edge="1" parent="DqnEtjNsPHN09WJmWj53-9" target="DqnEtjNsPHN09WJmWj53-9">
          <mxGeometry width="50" height="50" relative="1" as="geometry">
            <mxPoint y="90" as="sourcePoint" />
            <mxPoint x="110" y="90" as="targetPoint" />
          </mxGeometry>
        </mxCell>
        <mxCell id="DqnEtjNsPHN09WJmWj53-11" value="recognized pattern" style="text;html=1;align=left;verticalAlign=middle;resizable=0;points=[];autosize=1;strokeColor=none;fillColor=none;" vertex="1" parent="DqnEtjNsPHN09WJmWj53-9">
          <mxGeometry x="15" y="40" width="120" height="30" as="geometry" />
        </mxCell>
        <mxCell id="DqnEtjNsPHN09WJmWj53-16" value="Pattern Recognition" style="text;html=1;align=center;verticalAlign=middle;resizable=0;points=[];autosize=1;strokeColor=none;fillColor=none;" vertex="1" parent="DqnEtjNsPHN09WJmWj53-9">
          <mxGeometry x="15" y="90" width="130" height="30" as="geometry" />
        </mxCell>
        <mxCell id="DqnEtjNsPHN09WJmWj53-22" style="edgeStyle=orthogonalEdgeStyle;rounded=0;orthogonalLoop=1;jettySize=auto;html=1;entryX=0.5;entryY=1;entryDx=0;entryDy=0;" edge="1" parent="WIyWlLk6GJQsqaUBKTNV-1" source="DqnEtjNsPHN09WJmWj53-17" target="DqnEtjNsPHN09WJmWj53-2">
          <mxGeometry relative="1" as="geometry" />
        </mxCell>
        <mxCell id="DqnEtjNsPHN09WJmWj53-46" style="edgeStyle=orthogonalEdgeStyle;rounded=0;orthogonalLoop=1;jettySize=auto;html=1;entryX=0.5;entryY=1;entryDx=0;entryDy=0;" edge="1" parent="WIyWlLk6GJQsqaUBKTNV-1" source="DqnEtjNsPHN09WJmWj53-17" target="DqnEtjNsPHN09WJmWj53-40">
          <mxGeometry relative="1" as="geometry">
            <mxPoint x="840" y="580" as="targetPoint" />
          </mxGeometry>
        </mxCell>
        <mxCell id="DqnEtjNsPHN09WJmWj53-17" value="Objects" style="swimlane;whiteSpace=wrap;html=1;" vertex="1" parent="WIyWlLk6GJQsqaUBKTNV-1">
          <mxGeometry x="170" y="390" width="110" height="120" as="geometry" />
        </mxCell>
        <mxCell id="DqnEtjNsPHN09WJmWj53-18" value="" style="endArrow=none;html=1;rounded=0;entryX=1;entryY=0.5;entryDx=0;entryDy=0;exitX=0;exitY=0.5;exitDx=0;exitDy=0;" edge="1" parent="DqnEtjNsPHN09WJmWj53-17">
          <mxGeometry width="50" height="50" relative="1" as="geometry">
            <mxPoint y="90" as="sourcePoint" />
            <mxPoint x="110" y="90" as="targetPoint" />
          </mxGeometry>
        </mxCell>
        <mxCell id="DqnEtjNsPHN09WJmWj53-19" value="hand drawing" style="text;html=1;align=left;verticalAlign=middle;resizable=0;points=[];autosize=1;strokeColor=none;fillColor=none;" vertex="1" parent="DqnEtjNsPHN09WJmWj53-17">
          <mxGeometry x="10" y="30" width="100" height="30" as="geometry" />
        </mxCell>
        <mxCell id="DqnEtjNsPHN09WJmWj53-20" value="physical objects" style="text;html=1;align=left;verticalAlign=middle;resizable=0;points=[];autosize=1;strokeColor=none;fillColor=none;" vertex="1" parent="DqnEtjNsPHN09WJmWj53-17">
          <mxGeometry x="10" y="50" width="110" height="30" as="geometry" />
        </mxCell>
        <mxCell id="DqnEtjNsPHN09WJmWj53-21" value="manipulation" style="text;html=1;align=center;verticalAlign=middle;resizable=0;points=[];autosize=1;strokeColor=none;fillColor=none;" vertex="1" parent="DqnEtjNsPHN09WJmWj53-17">
          <mxGeometry x="10" y="90" width="90" height="30" as="geometry" />
        </mxCell>
        <mxCell id="DqnEtjNsPHN09WJmWj53-30" style="edgeStyle=orthogonalEdgeStyle;rounded=0;orthogonalLoop=1;jettySize=auto;html=1;entryX=0.5;entryY=1;entryDx=0;entryDy=0;" edge="1" parent="WIyWlLk6GJQsqaUBKTNV-1" target="DqnEtjNsPHN09WJmWj53-31">
          <mxGeometry relative="1" as="geometry">
            <mxPoint x="865" y="330" as="targetPoint" />
            <mxPoint x="730" y="270" as="sourcePoint" />
          </mxGeometry>
        </mxCell>
        <mxCell id="DqnEtjNsPHN09WJmWj53-25" value="Generative API" style="swimlane;whiteSpace=wrap;html=1;" vertex="1" parent="WIyWlLk6GJQsqaUBKTNV-1">
          <mxGeometry x="570" y="200" width="160" height="120" as="geometry" />
        </mxCell>
        <mxCell id="DqnEtjNsPHN09WJmWj53-26" value="" style="endArrow=none;html=1;rounded=0;entryX=1;entryY=0.75;entryDx=0;entryDy=0;exitX=0;exitY=0.5;exitDx=0;exitDy=0;" edge="1" parent="DqnEtjNsPHN09WJmWj53-25" target="DqnEtjNsPHN09WJmWj53-25">
          <mxGeometry width="50" height="50" relative="1" as="geometry">
            <mxPoint y="90" as="sourcePoint" />
            <mxPoint x="110" y="90" as="targetPoint" />
          </mxGeometry>
        </mxCell>
        <mxCell id="DqnEtjNsPHN09WJmWj53-27" value="key words&lt;br&gt;prompt" style="text;html=1;align=left;verticalAlign=middle;resizable=0;points=[];autosize=1;strokeColor=none;fillColor=none;" vertex="1" parent="DqnEtjNsPHN09WJmWj53-25">
          <mxGeometry x="15" y="35" width="80" height="40" as="geometry" />
        </mxCell>
        <mxCell id="DqnEtjNsPHN09WJmWj53-28" value="push and fetch" style="text;html=1;align=center;verticalAlign=middle;resizable=0;points=[];autosize=1;strokeColor=none;fillColor=none;" vertex="1" parent="DqnEtjNsPHN09WJmWj53-25">
          <mxGeometry x="30" y="90" width="100" height="30" as="geometry" />
        </mxCell>
        <mxCell id="DqnEtjNsPHN09WJmWj53-45" style="edgeStyle=orthogonalEdgeStyle;rounded=0;orthogonalLoop=1;jettySize=auto;html=1;entryX=0.5;entryY=1;entryDx=0;entryDy=0;exitX=1;exitY=0.5;exitDx=0;exitDy=0;" edge="1" parent="WIyWlLk6GJQsqaUBKTNV-1" source="DqnEtjNsPHN09WJmWj53-31" target="YqlVM4URliEp8QtS6VaE-0">
          <mxGeometry relative="1" as="geometry">
            <mxPoint x="940" y="310" as="sourcePoint" />
          </mxGeometry>
        </mxCell>
        <mxCell id="DqnEtjNsPHN09WJmWj53-31" value="Image generated" style="swimlane;whiteSpace=wrap;html=1;" vertex="1" parent="WIyWlLk6GJQsqaUBKTNV-1">
          <mxGeometry x="780" y="200" width="160" height="120" as="geometry" />
        </mxCell>
        <mxCell id="DqnEtjNsPHN09WJmWj53-32" value="" style="endArrow=none;html=1;rounded=0;entryX=1;entryY=0.75;entryDx=0;entryDy=0;exitX=0;exitY=0.5;exitDx=0;exitDy=0;" edge="1" parent="DqnEtjNsPHN09WJmWj53-31" target="DqnEtjNsPHN09WJmWj53-31">
          <mxGeometry width="50" height="50" relative="1" as="geometry">
            <mxPoint y="90" as="sourcePoint" />
            <mxPoint x="110" y="90" as="targetPoint" />
          </mxGeometry>
        </mxCell>
        <mxCell id="DqnEtjNsPHN09WJmWj53-33" value="image" style="text;html=1;align=left;verticalAlign=middle;resizable=0;points=[];autosize=1;strokeColor=none;fillColor=none;" vertex="1" parent="DqnEtjNsPHN09WJmWj53-31">
          <mxGeometry x="15" y="40" width="60" height="30" as="geometry" />
        </mxCell>
        <mxCell id="DqnEtjNsPHN09WJmWj53-34" value="push and fetch" style="text;html=1;align=center;verticalAlign=middle;resizable=0;points=[];autosize=1;strokeColor=none;fillColor=none;" vertex="1" parent="DqnEtjNsPHN09WJmWj53-31">
          <mxGeometry x="30" y="90" width="100" height="30" as="geometry" />
        </mxCell>
        <mxCell id="DqnEtjNsPHN09WJmWj53-40" value="Interactive platform" style="swimlane;whiteSpace=wrap;html=1;" vertex="1" parent="WIyWlLk6GJQsqaUBKTNV-1">
          <mxGeometry x="145" y="550" width="160" height="120" as="geometry" />
        </mxCell>
        <mxCell id="DqnEtjNsPHN09WJmWj53-42" value="image" style="text;html=1;align=left;verticalAlign=middle;resizable=0;points=[];autosize=1;strokeColor=none;fillColor=none;" vertex="1" parent="DqnEtjNsPHN09WJmWj53-40">
          <mxGeometry x="15" y="40" width="60" height="30" as="geometry" />
        </mxCell>
        <mxCell id="DqnEtjNsPHN09WJmWj53-43" value="place and project on" style="text;html=1;align=center;verticalAlign=middle;resizable=0;points=[];autosize=1;strokeColor=none;fillColor=none;" vertex="1" parent="DqnEtjNsPHN09WJmWj53-40">
          <mxGeometry x="15" y="90" width="130" height="30" as="geometry" />
        </mxCell>
        <mxCell id="DqnEtjNsPHN09WJmWj53-41" value="" style="endArrow=none;html=1;rounded=0;entryX=1;entryY=0.75;entryDx=0;entryDy=0;exitX=0;exitY=0.75;exitDx=0;exitDy=0;" edge="1" parent="WIyWlLk6GJQsqaUBKTNV-1" source="DqnEtjNsPHN09WJmWj53-40" target="DqnEtjNsPHN09WJmWj53-40">
          <mxGeometry width="50" height="50" relative="1" as="geometry">
            <mxPoint x="720" y="470" as="sourcePoint" />
            <mxPoint x="890" y="480" as="targetPoint" />
          </mxGeometry>
        </mxCell>
        <mxCell id="DqnEtjNsPHN09WJmWj53-48" value="" style="edgeStyle=none;orthogonalLoop=1;jettySize=auto;html=1;rounded=0;" edge="1" parent="WIyWlLk6GJQsqaUBKTNV-1">
          <mxGeometry width="100" relative="1" as="geometry">
            <mxPoint x="30" y="500" as="sourcePoint" />
            <mxPoint x="170" y="500" as="targetPoint" />
            <Array as="points" />
          </mxGeometry>
        </mxCell>
        <mxCell id="DqnEtjNsPHN09WJmWj53-49" value="Human" style="text;html=1;align=center;verticalAlign=middle;resizable=0;points=[];autosize=1;strokeColor=none;fillColor=none;" vertex="1" parent="WIyWlLk6GJQsqaUBKTNV-1">
          <mxGeometry x="20" y="470" width="60" height="30" as="geometry" />
        </mxCell>
        <mxCell id="YqlVM4URliEp8QtS6VaE-6" style="edgeStyle=orthogonalEdgeStyle;rounded=0;orthogonalLoop=1;jettySize=auto;html=1;entryX=0.5;entryY=1;entryDx=0;entryDy=0;" edge="1" parent="WIyWlLk6GJQsqaUBKTNV-1" source="YqlVM4URliEp8QtS6VaE-0" target="DqnEtjNsPHN09WJmWj53-40">
          <mxGeometry relative="1" as="geometry">
            <mxPoint x="420" y="730" as="targetPoint" />
          </mxGeometry>
        </mxCell>
        <mxCell id="YqlVM4URliEp8QtS6VaE-0" value="object detection" style="swimlane;whiteSpace=wrap;html=1;" vertex="1" parent="WIyWlLk6GJQsqaUBKTNV-1">
          <mxGeometry x="550" y="480" width="160" height="120" as="geometry" />
        </mxCell>
        <mxCell id="YqlVM4URliEp8QtS6VaE-1" value="" style="endArrow=none;html=1;rounded=0;entryX=1;entryY=0.75;entryDx=0;entryDy=0;exitX=0;exitY=0.5;exitDx=0;exitDy=0;" edge="1" parent="YqlVM4URliEp8QtS6VaE-0" target="YqlVM4URliEp8QtS6VaE-0">
          <mxGeometry width="50" height="50" relative="1" as="geometry">
            <mxPoint y="90" as="sourcePoint" />
            <mxPoint x="110" y="90" as="targetPoint" />
          </mxGeometry>
        </mxCell>
        <mxCell id="YqlVM4URliEp8QtS6VaE-2" value="objects segments" style="text;html=1;align=left;verticalAlign=middle;resizable=0;points=[];autosize=1;strokeColor=none;fillColor=none;" vertex="1" parent="YqlVM4URliEp8QtS6VaE-0">
          <mxGeometry x="15" y="40" width="120" height="30" as="geometry" />
        </mxCell>
        <mxCell id="YqlVM4URliEp8QtS6VaE-3" value="detect" style="text;html=1;align=center;verticalAlign=middle;resizable=0;points=[];autosize=1;strokeColor=none;fillColor=none;" vertex="1" parent="YqlVM4URliEp8QtS6VaE-0">
          <mxGeometry x="50" y="90" width="60" height="30" as="geometry" />
        </mxCell>
        <mxCell id="YqlVM4URliEp8QtS6VaE-5" style="edgeStyle=orthogonalEdgeStyle;rounded=0;orthogonalLoop=1;jettySize=auto;html=1;entryX=0.5;entryY=1.017;entryDx=0;entryDy=0;entryPerimeter=0;" edge="1" parent="WIyWlLk6GJQsqaUBKTNV-1" source="YqlVM4URliEp8QtS6VaE-0" target="DqnEtjNsPHN09WJmWj53-16">
          <mxGeometry relative="1" as="geometry" />
        </mxCell>
        <mxCell id="YqlVM4URliEp8QtS6VaE-8" value="" style="rounded=0;whiteSpace=wrap;html=1;fillColor=none;" vertex="1" parent="WIyWlLk6GJQsqaUBKTNV-1">
          <mxGeometry x="30" y="120" width="1020" height="630" as="geometry" />
        </mxCell>
      </root>
    </mxGraphModel>
  </diagram>
</mxfile>
